<?xml version="1.0" encoding="utf-8"?>
<!-- Generator: Adobe Illustrator 21.0.0, SVG Export Plug-In . SVG Version: 6.00 Build 0)  -->
<svg version="1.1" id="Layer_1" xmlns="http://www.w3.org/2000/svg" xmlns:xlink="http://www.w3.org/1999/xlink" x="0px" y="0px"
	 width="16px" height="16px" viewBox="0 0 16 16" style="enable-background:new 0 0 16 16;" xml:space="preserve">
<path d="M6.1,9.9c1.4,1.4,3.1,2.8,3.7,2.1c0.9-0.9,1.5-1.8,3.6-0.1c2.1,1.7,0.5,2.8-0.4,3.7c-1,1.1-5,0.1-8.8-3.8
	C0.3,8-0.7,4.1,0.4,3c0.9-0.9,2-2.5,3.7-0.4C5.7,4.6,4.9,5.2,4,6.2C3.3,6.8,4.7,8.5,6.1,9.9L6.1,9.9z M8.2,3.1c0,0-0.4-0.1-0.7,0.2
	c-0.3,0.3-0.3,0.9,0,1.2C7.7,4.7,8,4.7,8,4.7C8.5,4.8,9.3,5,10.1,5.9c0.9,0.9,1,1.7,1.1,2.2c0,0,0,0.3,0.2,0.5
	c0.3,0.3,0.9,0.3,1.2,0c0.3-0.3,0.2-0.7,0.2-0.7c-0.2-1.1-0.7-2.2-1.6-3.1C10.4,3.8,9.3,3.3,8.2,3.1L8.2,3.1z M12.3,3.7
	c1.6,1.6,2.2,3.4,2,4.8c0,0-0.1,0.5,0.2,0.8c0.3,0.3,0.9,0.3,1.2,0C15.9,9.1,16,8.8,16,8.8c0.2-1.2,0-3.8-2.5-6.2
	c-2.4-2.4-5-2.7-6.2-2.5c0,0-0.3,0-0.5,0.2c-0.3,0.3-0.3,0.8,0,1.2C7,1.8,7.5,1.7,7.5,1.7C8.9,1.5,10.7,2.2,12.3,3.7L12.3,3.7z
	 M12.3,3.7"/>
</svg>
